<svg width="289" height="24" viewBox="0 0 289 24" fill="none" xmlns="http://www.w3.org/2000/svg">
<g clip-path="url(#clip0_4_183)">
<path d="M12 21C16.9706 21 21 16.9706 21 12C21 7.02944 16.9706 3 12 3C7.02944 3 3 7.02944 3 12C3 16.9706 7.02944 21 12 21Z" stroke="#8F9BB3" stroke-width="2" stroke-linecap="round" stroke-linejoin="round"/>
<path d="M14.5 9C13.9949 8.49083 13.3719 8.15907 12.7058 8.04453C12.0397 7.92999 11.3589 8.03753 10.745 8.35425C10.1311 8.67097 9.61014 9.18342 9.24475 9.83009C8.87936 10.4768 8.685 11.2302 8.685 12C8.685 12.7698 8.87936 13.5232 9.24475 14.1699C9.61014 14.8166 10.1311 15.329 10.745 15.6458C11.3589 15.9625 12.0397 16.07 12.7058 15.9555C13.3719 15.8409 13.9949 15.5092 14.5 15" stroke="#8F9BB3" stroke-width="2" stroke-linecap="round" stroke-linejoin="round"/>
</g>
<path d="M33.504 18V6.64H40.112V8.048H34.992V11.488H39.04V12.896H34.992V18H33.504ZM45.015 18.192C43.863 18.192 42.919 17.8773 42.183 17.248C41.4577 16.6187 41.0843 15.856 41.063 14.96H42.551C42.615 15.5467 42.887 16 43.367 16.32C43.8577 16.64 44.4017 16.8 44.999 16.8C45.6177 16.8 46.1297 16.6453 46.535 16.336C46.9403 16.0267 47.143 15.616 47.143 15.104C47.143 14.24 46.6043 13.6053 45.527 13.2L43.959 12.624C43.063 12.3147 42.4017 11.904 41.975 11.392C41.559 10.88 41.3457 10.224 41.335 9.424C41.335 8.51733 41.655 7.79733 42.295 7.264C42.9457 6.72 43.7777 6.448 44.791 6.448C45.8577 6.448 46.7003 6.75733 47.319 7.376C47.9483 7.984 48.3003 8.69867 48.375 9.52H46.903C46.7643 8.95467 46.4977 8.53333 46.103 8.256C45.719 7.97867 45.271 7.84 44.759 7.84C44.2043 7.84 43.7403 7.97867 43.367 8.256C43.0043 8.53333 42.823 8.90667 42.823 9.376C42.823 9.84533 42.951 10.2187 43.207 10.496C43.463 10.7733 43.879 11.0133 44.455 11.216L45.911 11.744C46.807 12.064 47.4843 12.4907 47.943 13.024C48.4017 13.5467 48.631 14.224 48.631 15.056C48.631 16.0053 48.295 16.768 47.623 17.344C46.951 17.9093 46.0817 18.192 45.015 18.192ZM61.0108 7.664C61.7361 8.34667 62.0988 9.21067 62.0988 10.256C62.0988 11.3013 61.7361 12.1653 61.0108 12.848C60.2961 13.52 59.3574 13.856 58.1948 13.856H56.2108V18H54.7228V6.64H58.1948C59.3574 6.64 60.2961 6.98133 61.0108 7.664ZM59.9708 11.856C60.4081 11.44 60.6268 10.9067 60.6268 10.256C60.6268 9.60533 60.4081 9.072 59.9708 8.656C59.5441 8.24 58.9521 8.032 58.1948 8.032H56.2108V12.48H58.1948C58.9521 12.48 59.5441 12.272 59.9708 11.856ZM67.1918 18.16C65.9864 18.16 64.9838 17.76 64.1838 16.96C63.3944 16.1493 62.9998 15.1627 62.9998 14C62.9998 12.8373 63.3944 11.856 64.1838 11.056C64.9838 10.2453 65.9864 9.84 67.1918 9.84C68.3864 9.84 69.3784 10.2453 70.1678 11.056C70.9678 11.856 71.3678 12.8373 71.3678 14C71.3678 15.1627 70.9678 16.1493 70.1678 16.96C69.3784 17.76 68.3864 18.16 67.1918 18.16ZM65.1758 16.048C65.6984 16.6027 66.3704 16.88 67.1918 16.88C68.0131 16.88 68.6798 16.6027 69.1918 16.048C69.7038 15.4933 69.9598 14.8107 69.9598 14C69.9598 13.1893 69.7038 12.5067 69.1918 11.952C68.6798 11.3973 68.0131 11.12 67.1918 11.12C66.3704 11.12 65.6984 11.3973 65.1758 11.952C64.6638 12.5067 64.4078 13.1893 64.4078 14C64.4078 14.8107 64.6638 15.4933 65.1758 16.048ZM75.9189 18.16C75.0229 18.16 74.2709 17.9413 73.6629 17.504C73.0655 17.0667 72.7349 16.4587 72.6709 15.68H74.0789C74.1642 16.128 74.3775 16.4587 74.7189 16.672C75.0709 16.8853 75.4762 16.992 75.9349 16.992C76.3935 16.992 76.7615 16.9013 77.0389 16.72C77.3269 16.5387 77.4709 16.2773 77.4709 15.936C77.4709 15.616 77.3642 15.3547 77.1509 15.152C76.9482 14.9493 76.6122 14.784 76.1429 14.656L74.9909 14.352C73.6149 13.9893 72.9269 13.2053 72.9269 12C72.9269 11.3493 73.1829 10.8267 73.6949 10.432C74.2175 10.0373 74.8842 9.84 75.6949 9.84C76.5162 9.84 77.1882 10.0587 77.7109 10.496C78.2442 10.9227 78.5429 11.4667 78.6069 12.128H77.2309C77.1242 11.776 76.9322 11.4987 76.6549 11.296C76.3882 11.0933 76.0682 10.992 75.6949 10.992C75.3002 10.992 74.9695 11.0827 74.7029 11.264C74.4469 11.4453 74.3189 11.6853 74.3189 11.984C74.3189 12.272 74.4149 12.5067 74.6069 12.688C74.7989 12.8693 75.1082 13.0187 75.5349 13.136L76.8149 13.472C78.1802 13.8133 78.8629 14.6027 78.8629 15.84C78.8629 16.608 78.5909 17.1893 78.0469 17.584C77.5029 17.968 76.7935 18.16 75.9189 18.16ZM83.7906 18.08C83.0546 18.08 82.4626 17.872 82.0146 17.456C81.5666 17.04 81.3426 16.432 81.3426 15.632V11.264H79.6466V10H81.3426V7.776H82.7186V10H85.0226V11.264H82.7186V15.456C82.7186 15.9573 82.8253 16.3093 83.0386 16.512C83.252 16.7147 83.588 16.816 84.0466 16.816C84.452 16.816 84.7773 16.7627 85.0226 16.656V17.888C84.6386 18.016 84.228 18.08 83.7906 18.08ZM90.079 18.16C88.9163 18.16 87.951 17.7653 87.183 16.976C86.4257 16.1867 86.047 15.1947 86.047 14C86.047 12.7947 86.415 11.8027 87.151 11.024C87.8977 10.2347 88.8843 9.84 90.111 9.84C91.3483 9.84 92.319 10.2773 93.023 11.152C93.727 12.0267 94.0363 13.0987 93.951 14.368H87.439C87.4603 15.0933 87.727 15.7013 88.239 16.192C88.751 16.672 89.3697 16.912 90.095 16.912C91.183 16.912 91.9563 16.464 92.415 15.568H93.823C93.6203 16.3147 93.1883 16.9333 92.527 17.424C91.8657 17.9147 91.0497 18.16 90.079 18.16ZM91.647 11.632C91.2097 11.248 90.6817 11.056 90.063 11.056C89.4443 11.056 88.8897 11.2427 88.399 11.616C87.919 11.9893 87.6203 12.544 87.503 13.28H92.495C92.367 12.5547 92.0843 12.0053 91.647 11.632ZM95.9366 18V10H97.3126V11.552C97.462 11.0613 97.75 10.6667 98.1766 10.368C98.614 10.0693 99.0726 9.92 99.5526 9.92C99.7873 9.92 99.9953 9.94133 100.177 9.984V11.408C99.9846 11.3227 99.734 11.28 99.4246 11.28C98.87 11.28 98.3793 11.52 97.9526 12C97.526 12.48 97.3126 13.1573 97.3126 14.032V18H95.9366ZM112.097 16.672V18H104.737V17.456C104.737 17.0613 104.796 16.688 104.913 16.336C105.041 15.9733 105.18 15.6693 105.329 15.424C105.478 15.1787 105.713 14.9067 106.033 14.608C106.353 14.2987 106.604 14.0747 106.785 13.936C106.966 13.7867 107.27 13.5627 107.697 13.264C108.124 12.9547 108.406 12.752 108.545 12.656C109.302 12.1013 109.825 11.6373 110.113 11.264C110.412 10.88 110.561 10.3787 110.561 9.76C110.561 9.16267 110.369 8.688 109.985 8.336C109.601 7.97333 109.1 7.792 108.481 7.792C107.83 7.792 107.276 7.98933 106.817 8.384C106.358 8.77867 106.129 9.328 106.129 10.032H104.721C104.721 8.96533 105.073 8.10133 105.777 7.44C106.492 6.77867 107.388 6.448 108.465 6.448C109.468 6.448 110.3 6.736 110.961 7.312C111.633 7.888 111.969 8.70933 111.969 9.776C111.969 10.5867 111.772 11.28 111.377 11.856C110.982 12.4213 110.305 13.0507 109.345 13.744C109.164 13.872 108.908 14.0533 108.577 14.288C108.246 14.512 107.99 14.6933 107.809 14.832C107.628 14.9707 107.425 15.1413 107.201 15.344C106.988 15.536 106.817 15.744 106.689 15.968C106.572 16.1813 106.486 16.416 106.433 16.672H112.097ZM117.851 18.16C116.667 18.16 115.702 17.7653 114.955 16.976C114.208 16.176 113.835 15.1467 113.835 13.888V10.72C113.835 9.46133 114.208 8.43733 114.955 7.648C115.712 6.848 116.678 6.448 117.851 6.448C119.024 6.448 119.99 6.848 120.747 7.648C121.504 8.448 121.883 9.472 121.883 10.72V13.888C121.883 15.1467 121.504 16.176 120.747 16.976C119.99 17.7653 119.024 18.16 117.851 18.16ZM117.851 16.816C118.64 16.816 119.28 16.5547 119.771 16.032C120.262 15.5093 120.507 14.7947 120.507 13.888V10.72C120.507 9.81333 120.262 9.09867 119.771 8.576C119.28 8.05333 118.64 7.792 117.851 7.792C117.072 7.792 116.438 8.05333 115.947 8.576C115.456 9.09867 115.211 9.81333 115.211 10.72V13.888C115.211 14.7947 115.456 15.5093 115.947 16.032C116.438 16.5547 117.072 16.816 117.851 16.816ZM130.988 16.672V18H123.628V17.456C123.628 17.0613 123.686 16.688 123.804 16.336C123.932 15.9733 124.07 15.6693 124.22 15.424C124.369 15.1787 124.604 14.9067 124.924 14.608C125.244 14.2987 125.494 14.0747 125.676 13.936C125.857 13.7867 126.161 13.5627 126.588 13.264C127.014 12.9547 127.297 12.752 127.436 12.656C128.193 12.1013 128.716 11.6373 129.004 11.264C129.302 10.88 129.452 10.3787 129.452 9.76C129.452 9.16267 129.26 8.688 128.876 8.336C128.492 7.97333 127.99 7.792 127.372 7.792C126.721 7.792 126.166 7.98933 125.708 8.384C125.249 8.77867 125.02 9.328 125.02 10.032H123.612C123.612 8.96533 123.964 8.10133 124.668 7.44C125.382 6.77867 126.278 6.448 127.356 6.448C128.358 6.448 129.19 6.736 129.852 7.312C130.524 7.888 130.86 8.70933 130.86 9.776C130.86 10.5867 130.662 11.28 130.268 11.856C129.873 12.4213 129.196 13.0507 128.236 13.744C128.054 13.872 127.798 14.0533 127.468 14.288C127.137 14.512 126.881 14.6933 126.7 14.832C126.518 14.9707 126.316 15.1413 126.092 15.344C125.878 15.536 125.708 15.744 125.58 15.968C125.462 16.1813 125.377 16.416 125.324 16.672H130.988ZM134.086 18V8H131.894L133.014 6.64H135.462V18H134.086ZM139.817 17.776C139.593 18.0107 139.315 18.128 138.985 18.128C138.654 18.128 138.371 18.0107 138.137 17.776C137.913 17.5413 137.801 17.2587 137.801 16.928C137.801 16.608 137.918 16.3307 138.153 16.096C138.387 15.8507 138.665 15.728 138.985 15.728C139.305 15.728 139.582 15.8507 139.817 16.096C140.051 16.3307 140.169 16.608 140.169 16.928C140.169 17.2587 140.051 17.5413 139.817 17.776ZM144.424 18L149.448 6.64H150.68L155.72 18H154.168L152.696 14.688H147.4L145.96 18H144.424ZM150.04 8.656L147.992 13.344H152.104L150.04 8.656ZM157.109 18V6H158.485V18H157.109ZM161.093 18V6H162.469V18H161.093ZM169.145 18V6.64H173.017C174.062 6.64 174.889 6.928 175.497 7.504C176.105 8.06933 176.409 8.82667 176.409 9.776C176.409 10.608 176.158 11.2907 175.657 11.824C175.166 12.3573 174.478 12.688 173.593 12.816L177.977 18H176.105L171.737 12.832H170.633V18H169.145ZM170.633 11.504H172.841C173.502 11.504 174.014 11.36 174.377 11.072C174.739 10.7733 174.921 10.3413 174.921 9.776C174.921 9.21067 174.739 8.77867 174.377 8.48C174.014 8.17067 173.502 8.016 172.841 8.016H170.633V11.504ZM180.485 7.584C180.304 7.76533 180.074 7.856 179.797 7.856C179.52 7.856 179.285 7.76533 179.093 7.584C178.901 7.392 178.805 7.15733 178.805 6.88C178.805 6.61333 178.901 6.384 179.093 6.192C179.285 6 179.52 5.904 179.797 5.904C180.074 5.904 180.304 6 180.485 6.192C180.666 6.384 180.757 6.61333 180.757 6.88C180.757 7.15733 180.666 7.392 180.485 7.584ZM179.093 18V10H180.469V18H179.093ZM186.597 21.504C185.541 21.504 184.661 21.2427 183.957 20.72C183.264 20.208 182.853 19.5467 182.725 18.736H184.069C184.421 19.7707 185.275 20.288 186.629 20.288C187.387 20.288 187.995 20.0427 188.453 19.552C188.923 19.072 189.157 18.3947 189.157 17.52V16.576C188.869 17.0027 188.48 17.344 187.989 17.6C187.499 17.856 186.96 17.984 186.373 17.984C185.253 17.984 184.32 17.5947 183.573 16.816C182.827 16.0267 182.453 15.056 182.453 13.904C182.453 12.7627 182.827 11.8027 183.573 11.024C184.331 10.2347 185.264 9.84 186.373 9.84C186.96 9.84 187.499 9.968 187.989 10.224C188.48 10.48 188.869 10.816 189.157 11.232V10H190.533V17.504C190.533 18.784 190.16 19.7707 189.413 20.464C188.677 21.1573 187.739 21.504 186.597 21.504ZM184.613 15.92C185.115 16.4427 185.765 16.704 186.565 16.704C187.365 16.704 188.016 16.4427 188.517 15.92C189.019 15.3867 189.269 14.7147 189.269 13.904C189.269 13.0933 189.013 12.4267 188.501 11.904C188 11.3707 187.355 11.104 186.565 11.104C185.776 11.104 185.125 11.3707 184.613 11.904C184.112 12.4267 183.861 13.0933 183.861 13.904C183.861 14.7147 184.112 15.3867 184.613 15.92ZM194.5 18H193.124V6H194.5V11.232C195.044 10.304 195.892 9.84 197.044 9.84C197.951 9.84 198.681 10.1333 199.236 10.72C199.791 11.3067 200.068 12.0907 200.068 13.072V18H198.708V13.28C198.708 12.608 198.537 12.08 198.196 11.696C197.855 11.3013 197.396 11.104 196.82 11.104C196.159 11.104 195.604 11.3653 195.156 11.888C194.719 12.4107 194.5 13.1253 194.5 14.032V18ZM205.556 18.08C204.82 18.08 204.228 17.872 203.78 17.456C203.332 17.04 203.108 16.432 203.108 15.632V11.264H201.412V10H203.108V7.776H204.484V10H206.788V11.264H204.484V15.456C204.484 15.9573 204.591 16.3093 204.804 16.512C205.018 16.7147 205.354 16.816 205.812 16.816C206.218 16.816 206.543 16.7627 206.788 16.656V17.888C206.404 18.016 205.994 18.08 205.556 18.08ZM211.122 18.16C210.226 18.16 209.474 17.9413 208.866 17.504C208.269 17.0667 207.938 16.4587 207.874 15.68H209.282C209.367 16.128 209.581 16.4587 209.922 16.672C210.274 16.8853 210.679 16.992 211.138 16.992C211.597 16.992 211.965 16.9013 212.242 16.72C212.53 16.5387 212.674 16.2773 212.674 15.936C212.674 15.616 212.567 15.3547 212.354 15.152C212.151 14.9493 211.815 14.784 211.346 14.656L210.194 14.352C208.818 13.9893 208.13 13.2053 208.13 12C208.13 11.3493 208.386 10.8267 208.898 10.432C209.421 10.0373 210.087 9.84 210.898 9.84C211.719 9.84 212.391 10.0587 212.914 10.496C213.447 10.9227 213.746 11.4667 213.81 12.128H212.434C212.327 11.776 212.135 11.4987 211.858 11.296C211.591 11.0933 211.271 10.992 210.898 10.992C210.503 10.992 210.173 11.0827 209.906 11.264C209.65 11.4453 209.522 11.6853 209.522 11.984C209.522 12.272 209.618 12.5067 209.81 12.688C210.002 12.8693 210.311 13.0187 210.738 13.136L212.018 13.472C213.383 13.8133 214.066 14.6027 214.066 15.84C214.066 16.608 213.794 17.1893 213.25 17.584C212.706 17.968 211.997 18.16 211.122 18.16ZM220.082 18V6.64H223.954C224.999 6.64 225.826 6.928 226.434 7.504C227.042 8.06933 227.346 8.82667 227.346 9.776C227.346 10.608 227.095 11.2907 226.594 11.824C226.103 12.3573 225.415 12.688 224.53 12.816L228.914 18H227.042L222.674 12.832H221.57V18H220.082ZM221.57 11.504H223.778C224.439 11.504 224.951 11.36 225.314 11.072C225.677 10.7733 225.858 10.3413 225.858 9.776C225.858 9.21067 225.677 8.77867 225.314 8.48C224.951 8.17067 224.439 8.016 223.778 8.016H221.57V11.504ZM233.204 18.16C232.041 18.16 231.076 17.7653 230.308 16.976C229.551 16.1867 229.172 15.1947 229.172 14C229.172 12.7947 229.54 11.8027 230.276 11.024C231.023 10.2347 232.009 9.84 233.236 9.84C234.473 9.84 235.444 10.2773 236.148 11.152C236.852 12.0267 237.161 13.0987 237.076 14.368H230.564C230.585 15.0933 230.852 15.7013 231.364 16.192C231.876 16.672 232.495 16.912 233.22 16.912C234.308 16.912 235.081 16.464 235.54 15.568H236.948C236.745 16.3147 236.313 16.9333 235.652 17.424C234.991 17.9147 234.175 18.16 233.204 18.16ZM234.772 11.632C234.335 11.248 233.807 11.056 233.188 11.056C232.569 11.056 232.015 11.2427 231.524 11.616C231.044 11.9893 230.745 12.544 230.628 13.28H235.62C235.492 12.5547 235.209 12.0053 234.772 11.632ZM241.638 18.16C240.742 18.16 239.99 17.9413 239.382 17.504C238.784 17.0667 238.454 16.4587 238.39 15.68H239.798C239.883 16.128 240.096 16.4587 240.438 16.672C240.79 16.8853 241.195 16.992 241.654 16.992C242.112 16.992 242.48 16.9013 242.758 16.72C243.046 16.5387 243.19 16.2773 243.19 15.936C243.19 15.616 243.083 15.3547 242.87 15.152C242.667 14.9493 242.331 14.784 241.862 14.656L240.71 14.352C239.334 13.9893 238.646 13.2053 238.646 12C238.646 11.3493 238.902 10.8267 239.414 10.432C239.936 10.0373 240.603 9.84 241.414 9.84C242.235 9.84 242.907 10.0587 243.43 10.496C243.963 10.9227 244.262 11.4667 244.326 12.128H242.95C242.843 11.776 242.651 11.4987 242.374 11.296C242.107 11.0933 241.787 10.992 241.414 10.992C241.019 10.992 240.688 11.0827 240.422 11.264C240.166 11.4453 240.038 11.6853 240.038 11.984C240.038 12.272 240.134 12.5067 240.326 12.688C240.518 12.8693 240.827 13.0187 241.254 13.136L242.534 13.472C243.899 13.8133 244.582 14.6027 244.582 15.84C244.582 16.608 244.31 17.1893 243.766 17.584C243.222 17.968 242.512 18.16 241.638 18.16ZM249.938 18.16C248.776 18.16 247.81 17.7653 247.042 16.976C246.285 16.1867 245.906 15.1947 245.906 14C245.906 12.7947 246.274 11.8027 247.01 11.024C247.757 10.2347 248.744 9.84 249.97 9.84C251.208 9.84 252.178 10.2773 252.882 11.152C253.586 12.0267 253.896 13.0987 253.81 14.368H247.298C247.32 15.0933 247.586 15.7013 248.098 16.192C248.61 16.672 249.229 16.912 249.954 16.912C251.042 16.912 251.816 16.464 252.274 15.568H253.682C253.48 16.3147 253.048 16.9333 252.386 17.424C251.725 17.9147 250.909 18.16 249.938 18.16ZM251.506 11.632C251.069 11.248 250.541 11.056 249.922 11.056C249.304 11.056 248.749 11.2427 248.258 11.616C247.778 11.9893 247.48 12.544 247.362 13.28H252.354C252.226 12.5547 251.944 12.0053 251.506 11.632ZM255.796 18V10H257.172V11.552C257.321 11.0613 257.609 10.6667 258.036 10.368C258.473 10.0693 258.932 9.92 259.412 9.92C259.647 9.92 259.855 9.94133 260.036 9.984V11.408C259.844 11.3227 259.593 11.28 259.284 11.28C258.729 11.28 258.239 11.52 257.812 12C257.385 12.48 257.172 13.1573 257.172 14.032V18H255.796ZM264.151 18L260.455 10H261.991L264.727 16.064L267.463 10H268.999L265.303 18H264.151ZM273.626 18.16C272.463 18.16 271.498 17.7653 270.73 16.976C269.973 16.1867 269.594 15.1947 269.594 14C269.594 12.7947 269.962 11.8027 270.698 11.024C271.445 10.2347 272.431 9.84 273.658 9.84C274.895 9.84 275.866 10.2773 276.57 11.152C277.274 12.0267 277.583 13.0987 277.498 14.368H270.986C271.007 15.0933 271.274 15.7013 271.786 16.192C272.298 16.672 272.917 16.912 273.642 16.912C274.73 16.912 275.503 16.464 275.962 15.568H277.37C277.167 16.3147 276.735 16.9333 276.074 17.424C275.413 17.9147 274.597 18.16 273.626 18.16ZM275.194 11.632C274.757 11.248 274.229 11.056 273.61 11.056C272.991 11.056 272.437 11.2427 271.946 11.616C271.466 11.9893 271.167 12.544 271.05 13.28H276.042C275.914 12.5547 275.631 12.0053 275.194 11.632ZM282.78 18.16C281.67 18.16 280.737 17.7547 279.98 16.944C279.233 16.1333 278.86 15.152 278.86 14C278.86 12.848 279.233 11.8667 279.98 11.056C280.737 10.2453 281.67 9.84 282.78 9.84C283.366 9.84 283.91 9.97333 284.412 10.24C284.924 10.496 285.318 10.8267 285.596 11.232V6H286.972V18H285.596V16.768C285.318 17.1733 284.924 17.5093 284.412 17.776C283.91 18.032 283.366 18.16 282.78 18.16ZM282.988 16.896C283.777 16.896 284.428 16.6187 284.94 16.064C285.452 15.5093 285.708 14.8213 285.708 14C285.708 13.1787 285.452 12.4907 284.94 11.936C284.428 11.3813 283.777 11.104 282.988 11.104C282.188 11.104 281.532 11.3813 281.02 11.936C280.508 12.4907 280.252 13.1787 280.252 14C280.252 14.8213 280.508 15.5093 281.02 16.064C281.532 16.6187 282.188 16.896 282.988 16.896Z" fill="#2E3A59"/>
<defs>
<clipPath id="clip0_4_183">
<rect width="24" height="24" fill="white"/>
</clipPath>
</defs>
</svg>
