<svg width="24" height="24" viewBox="0 0 24 24" fill="none" xmlns="http://www.w3.org/2000/svg">
<path d="M1.70569 11.9993C1.70569 16.0739 4.07363 19.5952 7.50732 21.2638L2.59692 7.80994C2.00828 9.12811 1.70458 10.5557 1.70569 11.9993ZM18.949 11.4799C18.949 10.2077 18.492 9.3266 18.1001 8.64085C17.5782 7.7929 17.0891 7.07482 17.0891 6.22688C17.0891 5.28061 17.8068 4.39976 18.8177 4.39976C18.8634 4.39976 18.9067 4.40544 18.9511 4.40798C17.1197 2.73012 14.6797 1.70569 11.9997 1.70569C8.40345 1.70569 5.23948 3.55083 3.39884 6.34558C3.64035 6.35283 3.86796 6.35792 4.06129 6.35792C5.13801 6.35792 6.80471 6.22727 6.80471 6.22727C7.35963 6.19456 7.42505 7.0096 6.87072 7.07522C6.87072 7.07522 6.31307 7.14083 5.69253 7.17335L9.44119 18.3235L11.694 11.5672L10.0901 7.17296C9.5358 7.14044 9.01066 7.07482 9.01066 7.07482C8.45594 7.04231 8.52097 6.19417 9.07569 6.22688C9.07569 6.22688 10.7757 6.35753 11.7872 6.35753C12.8637 6.35753 14.5306 6.22688 14.5306 6.22688C15.0859 6.19417 15.1512 7.00921 14.5966 7.07482C14.5966 7.07482 14.0378 7.14044 13.4184 7.17296L17.1385 18.2387L18.1653 14.8076C18.6103 13.3838 18.949 12.3611 18.949 11.4799Z" fill="white"/>
<path d="M12.1803 12.8998L9.09174 21.8746C10.036 22.1527 11.0153 22.2939 11.9997 22.294C13.1985 22.294 14.348 22.0867 15.4181 21.7104C15.3896 21.6654 15.365 21.618 15.3449 21.5686L12.1803 12.8998ZM21.0323 7.06055C21.0766 7.38844 21.1016 7.74043 21.1016 8.11906C21.1016 9.16366 20.9065 10.3379 20.3189 11.8062L17.1745 20.8974C20.2349 19.1127 22.2933 15.7972 22.2933 11.9995C22.2935 10.2098 21.8364 8.52687 21.0323 7.06055Z" fill="white"/>
<path d="M11.9997 0C5.38324 0 0 5.38285 0 11.9993C0 18.6166 5.38324 23.9992 11.9997 23.9992C18.616 23.9992 24 18.6166 24 11.9993C23.9998 5.38285 18.616 0 11.9997 0ZM11.9997 23.4492C5.68665 23.4492 0.550213 18.3128 0.550213 11.9993C0.550213 5.68626 5.68645 0.550213 11.9997 0.550213C18.3126 0.550213 23.4486 5.68626 23.4486 11.9993C23.4486 18.3128 18.3126 23.4492 11.9997 23.4492Z" fill="white"/>
</svg>
