<svg width="18" height="18" viewBox="0 0 18 18" fill="none" xmlns="http://www.w3.org/2000/svg">
<path fill-rule="evenodd" clip-rule="evenodd" d="M17.3032 10.4258C16.7772 10.2588 16.2152 10.5498 16.0472 11.0758C15.1102 14.0218 12.3522 15.9998 9.18418 15.9998C5.22218 15.9998 2.00018 12.8598 2.00018 8.99982C2.00018 5.14082 5.22218 1.99982 9.18418 1.99982C10.9122 1.99982 12.5422 2.60182 13.8292 3.66982L11.6632 3.31282C11.1132 3.21282 10.6032 3.59182 10.5132 4.13582C10.4232 4.68082 10.7922 5.19582 11.3372 5.28482L15.5832 5.98682C15.6382 5.99582 15.6942 5.99982 15.7472 5.99982C15.8662 5.99982 15.9822 5.97882 16.0902 5.93882C16.1272 5.92482 16.1572 5.89882 16.1932 5.87982C16.2592 5.84582 16.3282 5.81582 16.3852 5.76782C16.4212 5.73882 16.4442 5.69682 16.4752 5.66282C16.5222 5.61382 16.5722 5.56682 16.6072 5.50682C16.6322 5.46382 16.6422 5.41282 16.6612 5.36482C16.6852 5.30582 16.7172 5.25082 16.7292 5.18582L17.4832 1.18582C17.5852 0.642817 17.2282 0.118817 16.6852 0.0178169C16.1442 -0.0801831 15.6192 0.272817 15.5172 0.814817L15.2452 2.25582C13.5812 0.814817 11.4482 -0.000183105 9.18418 -0.000183105C4.12018 -0.000183105 0.000183105 4.03682 0.000183105 8.99982C0.000183105 13.9628 4.12018 17.9998 9.18418 17.9998C13.2262 17.9998 16.7502 15.4608 17.9532 11.6818C18.1202 11.1558 17.8292 10.5938 17.3032 10.4258Z" fill="white"/>
</svg>
