<svg width="18" height="16" viewBox="0 0 18 16" fill="none" xmlns="http://www.w3.org/2000/svg">
<path fill-rule="evenodd" clip-rule="evenodd" d="M16.0156 2.65431V2.65631V2.65431ZM5.5126 13.9973C5.5366 13.9973 5.5626 13.9983 5.5866 14.0003C11.2816 13.9633 14.6806 9.61231 14.6806 5.40631C14.6806 5.02431 14.8766 4.77731 15.0506 4.55831C15.2086 4.35831 15.4536 4.05031 15.6716 3.60631C14.8786 3.59831 14.1706 3.24631 13.7586 2.76431C13.3276 2.30331 12.7086 2.02131 12.0406 2.00131C11.3966 1.97531 10.7396 2.22331 10.2516 2.68631C9.6016 3.30331 9.3236 4.23431 9.5256 5.11431L9.7866 6.25331L8.6206 6.33531C5.6046 6.56131 3.5146 5.27031 2.0796 3.93431C2.0856 5.95431 2.7566 8.64931 5.8066 10.3873L6.7646 10.9333L6.1276 11.8343C5.4646 12.7733 4.4666 13.3723 3.4506 13.7553C4.1216 13.9153 4.8116 13.9973 5.4996 13.9973H5.5116H5.5126ZM5.5126 16.0003C5.4866 16.0003 5.4586 15.9993 5.4326 15.9973C3.8296 15.9863 2.2216 15.6133 0.777597 14.9143C0.234598 14.6503 -0.0724025 14.0723 0.0145975 13.4723C0.102598 12.8653 0.568598 12.3893 1.1726 12.2913C2.2176 12.1193 3.0846 11.8133 3.7126 11.4043C-0.164402 8.50531 -0.0624025 4.16531 0.188597 2.32731C0.262598 1.78931 0.645597 1.34031 1.1636 1.18331C1.6896 1.02331 2.2346 1.18331 2.5946 1.59231C4.1306 3.33331 5.6656 4.20831 7.4656 4.34131C7.5176 3.17631 8.0136 2.05331 8.8746 1.23531C9.7516 0.402308 10.8986 -0.0336924 12.1026 0.00230764C13.3076 0.0393076 14.4256 0.547308 15.2496 1.43231C15.3336 1.52831 15.6476 1.70231 16.0266 1.53231C16.5236 1.30931 17.0886 1.38331 17.5006 1.72731C17.9116 2.06831 18.0866 2.60531 17.9586 3.12831C17.6356 4.45931 16.9976 5.31731 16.6756 5.72831C16.5076 10.8333 12.3596 16.0003 5.5126 16.0003Z" fill="white"/>
</svg>
